<svg xmlns="http://www.w3.org/2000/svg" width="24" height="24" fill="none" viewBox="0 0 24 24"><path fill="#5dbdd5" d="M23 1H1v22h22z"/><path fill="#fff" fill-rule="evenodd" d="M13.416 10.685C10.53 8.833 9.84 8.025 9.607 6.647c-.3-1.774 1.165-3.137 3.06-3.137.623 0 3.187.24 3.245 3.757h.692V3.614c-1.115-.418-2.729-.845-4.327-.845-2.79 0-5.058 1.633-5.058 4.696 0 2.432 2.347 3.778 4.359 4.976 3.094 1.986 3.66 2.878 3.681 4.378 0 2.23-1.666 3.486-3.556 3.486-.842 0-1.6-.26-2.178-.75-.22-.259.112-.537.112-.537.346-.367.544-.873.505-1.418a1.85 1.85 0 0 0-1.972-1.722 1.855 1.855 0 0 0-1.703 1.992c.021.294.11.585.246.802 1.012 1.626 2.959 2.559 4.99 2.559 2.992 0 5.836-1.905 5.836-5.192 0-2.608-1.966-4.069-4.124-5.354" clip-rule="evenodd"/></svg>