<svg width="24" height="24" viewBox="0 0 24 24" fill="none" xmlns="http://www.w3.org/2000/svg">
<g clip-path="url(#clip0_6_1238)">
<mask id="mask0_6_1238" style="mask-type:alpha" maskUnits="userSpaceOnUse" x="-1" y="-1" width="25" height="26">
<path d="M-0.867676 -0.0922852L23.8154 -0.0922852V24.6462H-0.867676L-0.867676 -0.0922852Z" fill="white"/>
</mask>
<g mask="url(#mask0_6_1238)">
<path fill-rule="evenodd" clip-rule="evenodd" d="M0.923096 23.0769H23.0769V0.923096L0.923096 0.923096L0.923096 23.0769Z" fill="#DB374C"/>
<path fill-rule="evenodd" clip-rule="evenodd" d="M16.1538 8.08218C15.5077 8.08218 14.8615 8.25129 14.3077 8.50496V4.61536H12V11.8873C12 14.0011 13.8462 15.6923 16.1538 15.6923C18.4615 15.6923 20.3077 14.0011 20.3077 11.8873C20.3077 9.77333 18.4615 8.08218 16.1538 8.08218ZM16.1538 13.6629C15.1385 13.6629 14.3077 12.9019 14.3077 11.9718C14.3077 11.0416 15.1385 10.2806 16.1538 10.2806C17.1692 10.2806 18 11.0416 18 11.9718C18 12.9019 17.1692 13.6629 16.1538 13.6629Z" fill="#FFFFFE"/>
<path fill-rule="evenodd" clip-rule="evenodd" d="M11.7072 13.6418C11.7072 13.5573 11.7072 13.5573 11.7072 13.4727C11.6172 13.0499 11.5272 12.6272 11.5272 12.2044V7.38464L9.18569 7.38464V11.1051C8.73541 10.936 8.28513 10.8514 7.74479 10.8514C5.49339 10.8514 3.69226 12.5426 3.69226 14.6566C3.69226 16.7704 5.49339 18.4616 7.74479 18.4616C9.18569 18.4616 10.3564 17.7851 11.0769 16.7704C11.7973 17.4469 12.6078 18.0388 13.5984 18.4616L14.7692 16.6013C13.3283 16.1785 12.1575 14.9948 11.7072 13.6418ZM7.74479 16.3476C6.75417 16.3476 5.94366 15.5866 5.94366 14.6566C5.94366 13.7264 6.75417 12.9654 7.74479 12.9654C8.73541 12.9654 9.54595 13.7264 9.54595 14.6566C9.54595 15.5866 8.73541 16.3476 7.74479 16.3476Z" fill="#FFFFFE"/>
</g>
</g>
<defs>
<clipPath id="clip0_6_1238">
<rect width="24" height="24" fill="white"/>
</clipPath>
</defs>
</svg>
